<?xml version="1.0" encoding="UTF-8" standalone="no"?>
<svg
   xmlns:dc="http://purl.org/dc/elements/1.1/"
   xmlns:cc="http://creativecommons.org/ns#"
   xmlns:rdf="http://www.w3.org/1999/02/22-rdf-syntax-ns#"
   xmlns:svg="http://www.w3.org/2000/svg"
   xmlns="http://www.w3.org/2000/svg"
   xmlns:sodipodi="http://sodipodi.sourceforge.net/DTD/sodipodi-0.dtd"
   xmlns:inkscape="http://www.inkscape.org/namespaces/inkscape"
   height="512px"
   style="enable-background:new 0 0 512 512;"
   version="1.1"
   viewBox="0 0 512 512"
   width="512px"
   xml:space="preserve"
   id="svg8"
   sodipodi:docname="logo3.svg"
   inkscape:version="0.92.4 (5da689c313, 2019-01-14)"><metadata
     id="metadata14"><rdf:RDF><cc:Work
         rdf:about=""><dc:format>image/svg+xml</dc:format><dc:type
           rdf:resource="http://purl.org/dc/dcmitype/StillImage" /><dc:title></dc:title></cc:Work></rdf:RDF></metadata><defs
     id="defs12" /><sodipodi:namedview
     pagecolor="#ffffff"
     bordercolor="#666666"
     borderopacity="1"
     objecttolerance="10"
     gridtolerance="10"
     guidetolerance="10"
     inkscape:pageopacity="0"
     inkscape:pageshadow="2"
     inkscape:window-width="1920"
     inkscape:window-height="1027"
     id="namedview10"
     showgrid="false"
     inkscape:zoom="0.4609375"
     inkscape:cx="256"
     inkscape:cy="256"
     inkscape:window-x="-8"
     inkscape:window-y="-8"
     inkscape:window-maximized="1"
     inkscape:current-layer="comp_x5F_205-markdown" /><g
     id="comp_x5F_205-markdown"><g
       id="g4"
       style="stroke:#00c200;stroke-opacity:1"><path
         d="    M444.396,114.479H67.603c-18.328,0-33.206,14.879-33.206,33.135v216.703c0,18.327,14.878,33.205,33.206,33.205h376.865    c18.326,0,33.206-14.878,33.135-33.133V147.613C477.603,129.357,462.724,114.479,444.396,114.479z M266.898,331.182h-44.203    v-86.25l-44.203,55.272l-44.202-55.272v86.25H89.943V180.819h44.204l44.203,55.272l44.203-55.272h44.202v150.362H266.898z     M364.145,333.41l-66.34-77.409h44.203v-75.182h44.203v75.182h44.203L364.145,333.41z"
         style="fill:none;stroke:#00c200;stroke-width:20;stroke-linecap:round;stroke-linejoin:round;stroke-miterlimit:10;stroke-opacity:1"
         id="path2" /></g></g><g
     id="Layer_1" /></svg>